<svg xmlns="http://www.w3.org/2000/svg" width="76" height="76" viewBox="0 0 76 76">
  <g id="Group_38190" data-name="Group 38190" transform="translate(-0.077 -0.284)">
    <circle id="Ellipse_47" data-name="Ellipse 47" cx="38" cy="38" r="38" transform="translate(0.077 0.284)" fill="#fb8c00"/>
    <g id="Group_34904" data-name="Group 34904" transform="translate(10.694 11.809)">
      <path id="Path_47578" data-name="Path 47578" d="M745.5,2276.3a3.618,3.618,0,0,0-2.105.672l-5.524,3.868a.711.711,0,0,0-.166.989.713.713,0,0,0,.58.3.7.7,0,0,0,.41-.131l5.524-3.867a2.206,2.206,0,0,1,1.284-.409,2.231,2.231,0,0,1,1.817.937,2.228,2.228,0,0,1-.526,3.1l-14.816,10.466a2.232,2.232,0,0,1-.561.289,2.2,2.2,0,0,1-.722.12c-.075,0-.149,0-.22-.011l-.028,0-.013,0-13.773-3.506a.838.838,0,0,0-.085-.019,3.68,3.68,0,0,0-.558-.042,3.619,3.619,0,0,0-2.105.674l-1.006.715-5.787-8.149,6.4-4.572a4.437,4.437,0,0,1,2.582-.827,4.575,4.575,0,0,1,.686.052l.037.008,15.714,4.56.017.005a2.222,2.222,0,0,1,1.539,2.687,2.146,2.146,0,0,1-1.027,1.319,2.237,2.237,0,0,1-1.1.291,2.289,2.289,0,0,1-.586-.077h0l-.016,0-.013,0-8.109-1.97a.709.709,0,0,0-.851.53.71.71,0,0,0,.529.853l8.105,1.969.016,0a3.708,3.708,0,0,0,.931.12,3.656,3.656,0,0,0,1.8-.476,3.558,3.558,0,0,0,1.7-2.188,3.65,3.65,0,0,0-2.524-4.421l-15.714-4.561-.008,0a.741.741,0,0,0-.124-.034,5.994,5.994,0,0,0-1-.084,5.85,5.85,0,0,0-3.4,1.092l-6.4,4.57-.733-1.032a.712.712,0,0,0-.58-.3.7.7,0,0,0-.41.131l-2.628,1.86-.012.009-.018.013a.715.715,0,0,0,.428,1.288.7.7,0,0,0,.444-.155l.011-.009,2.019-1.436,8.088,11.39-1.868,1.331a.708.708,0,0,0-.128.092.715.715,0,0,0,.9,1.111l2.5-1.785a.712.712,0,0,0,.169-.991l-.746-1.051,1.007-.715a2.2,2.2,0,0,1,1.283-.41,2.231,2.231,0,0,1,.3.02l.033.006,13.8,3.513.011,0,.024,0,.02,0,.017,0,.022,0a3.7,3.7,0,0,0,.442.027,3.633,3.633,0,0,0,2.112-.673l14.816-10.466a3.651,3.651,0,0,0,.861-5.084A3.657,3.657,0,0,0,745.5,2276.3Z" transform="translate(-701.624 -2243.861)" fill="#fff"/>
      <path id="Path_47579" data-name="Path 47579" d="M2018.263,1243.856a.744.744,0,1,0-1.489.025,3.146,3.146,0,0,0,.362,1.411,3.542,3.542,0,0,0,.91,1.105,4.2,4.2,0,0,0,1.827.853l.015.852a.744.744,0,1,0,1.489-.026l-.013-.77a4.275,4.275,0,0,0,2.3-1.006,3.542,3.542,0,0,0,.871-1.136,3.144,3.144,0,0,0,.313-1.423,3.43,3.43,0,0,0-1.853-2.912,5.828,5.828,0,0,0-1.631-.558v-3.4a2.316,2.316,0,0,1,.932.453,1.563,1.563,0,0,1,.617,1.179.744.744,0,0,0,1.489-.026,3.026,3.026,0,0,0-1.164-2.306,3.85,3.85,0,0,0-1.827-.807l-.014-.81a.744.744,0,0,0-1.489.026l.014.81a3.846,3.846,0,0,0-1.8.869,2.965,2.965,0,0,0,.033,4.611l.006,0a3.587,3.587,0,0,0,1.76.7v4.156A2.113,2.113,0,0,1,2018.263,1243.856Zm3.1-2.056a4.056,4.056,0,0,1,.906.332,1.961,1.961,0,0,1,1.09,1.637,2.217,2.217,0,0,1-2,2.034Zm-2.248-2.066a1.48,1.48,0,0,1-.011-2.353,2.3,2.3,0,0,1,.817-.455v3.135A1.9,1.9,0,0,1,2019.116,1239.734Z" transform="translate(-1989.275 -1223.994)" fill="#fff"/>
      <path id="Path_47580" data-name="Path 47580" d="M1216.229,792.115a.719.719,0,0,0,1.217,0l6.771-10.734a.719.719,0,0,0-.609-1.1h-3.4a10.1,10.1,0,1,1,2.929,7.852.719.719,0,0,0-1.017,1.017,11.534,11.534,0,1,0-3.354-8.869h-1.927a.719.719,0,0,0,0,1.439h5.467l-5.467,8.666-5.467-8.666h2.279a.719.719,0,0,0,.719-.719,15.9,15.9,0,1,1,31.8,0,.719.719,0,1,0,1.439,0,17.336,17.336,0,0,0-34.658-.719h-2.879a.719.719,0,0,0-.608,1.1Z" transform="translate(-1198.731 -763.661)" fill="#fff"/>
      <path id="Path_47581" data-name="Path 47581" d="M2970.827,1697.794a.719.719,0,0,0-.719.719v.5a.719.719,0,1,0,1.438,0v-.5A.719.719,0,0,0,2970.827,1697.794Z" transform="translate(-2922.674 -1678.261)" fill="#fff"/>
      <path id="Path_47582" data-name="Path 47582" d="M2970.827,1880.554a.719.719,0,0,0-.719.719v.5a.719.719,0,0,0,1.438,0v-.5A.719.719,0,0,0,2970.827,1880.554Z" transform="translate(-2922.674 -1857.2)" fill="#fff"/>
    </g>
  </g>
</svg>
